-
http:// www . torrentkit. com        
http:// www .torrentkit. com       the fast  and The Hottest Private Tracker on the net

Please Seed back to make the speed Faster!!!

and don't forget to visit      ...... www .torrentkit .com..........
-[align=center][IMG]http://img821.imageshack.us/img821/6308/fightercover.jpg[/IMG]

** ** ** ** ** ** ** ** ** 

IMDB........ http://www.imdb.com/title/tt0964517/

** ** ** ** ** ** ** ** ** 

[b]PLOT[/b]

A look at the early years of boxer "Irish" Micky Ward and his brother who helped train him before going pro in the mid 1980s.

** ** ** ** ** ** ** ** ** 

[b]AVI Information[/b]

Complete name : The.Fighter.2010 480 BRRip Xvid AC3 - PRESTiGE.avi 
Format : AVI 
Format/Info : Audio Video Interleave 
Format profile : OpenDML 
Format settings : rec 
File size : 1.74 GiB 
Duration : 1h 55mn 
Overall bit rate : 2 150 Kbps 
Source: The.Fighter.2010.BluRay.720p.DTS.x264-CHD
Encoder: Twisted

[b]Video Stream[/b]

ID : 0 
Format : MPEG-4 Visual 
Format profile : Advanced Simple@L5 
Format settings, BVOP : 2 
Format settings, QPel : No 
Format settings, GMC : No warppoints 
Format settings, Matrix : Default (MPEG) 
Codec ID : XVID 
Codec ID/Hint : XviD 
Duration : 1h 55mn 
Bit rate : 1 697 Kbps 
Width : 720 pixels 
Height : 304 pixels 
Display aspect ratio : 2.35:1 
Frame rate : 23.976 fps 
Color space : YUV 
Chroma subsampling : 4:2:0 
Bit depth : 8 bits 
Scan type : Progressive 
Compression mode : Lossy 
Bits/(Pixel*Frame) : 0.323 
Stream size : 1.37 GiB (79%) 
Writing library : XviD 62 


[b]Audio Stream[/b]

ID : 1 
Format : AC-3 
Format/Info : Audio Coding 3 
Mode extension : CM (complete main) 
Codec ID : 2000 
Duration : 1h 55mn 
Bit rate mode : Constant 
Bit rate : 448 Kbps 
Channel(s) : 6 channels 
Channel positions : Front: L C R, Side: L R, LFE 
Sampling rate : 48.0 KHz 
Bit depth : 16 bits 
Compression mode : Lossy 
Stream size : 371 MiB (21%) 
Alignment : Aligned on interleaves 
Interleave, duration : 64 ms (1.53 video frames) 
Interleave, preload duration : 192 ms 
Title : T2_Audio - English 


** ** ** ** ** ** ** ** ** 

[b]Screens[/b]

[IMG]http://img41.imageshack.us/img41/6371/pic11ew.png[/IMG]
[IMG]http://img121.imageshack.us/img121/4971/pic12s.png[/IMG]
[IMG]http://img641.imageshack.us/img641/1208/pic13s.png[/IMG]
[IMG]http://img691.imageshack.us/img691/9163/pic14o.png[/IMG]
[IMG]http://img4.imageshack.us/img4/9692/pic15g.png[/IMG]
[IMG]http://img832.imageshack.us/img832/3142/pic16d.png[/IMG]
[IMG]http://img39.imageshack.us/img39/3774/pic17b.png[/IMG]
[IMG]http://img228.imageshack.us/img228/5331/pic18u.png[/IMG]

** ** ** ** ** ** ** ** **

Note

PRESTiGE - IS LOOKING FOR?: CAMMER'S, AUDIO SUPPLIERS, SYNCER'S, RETAIL SUPPLIER'S, SILVER'S, SCREENER'S, LINE CAPPER'S

ENCODER'S - ANYTHING AT ALL EMAIL US AT..... prestige@twistedtorrents.com

** ** ** ** ** ** ** ** **

Greets Are Flying Out To:

[b]BmB,HiTM4N,BIGGUY,Demedic,DiLLoN,Imagine,CTFX,Jammo
Encoders Past And Present[/b]

** ** ** ** ** ** ** ** ** 

PRESTiGE is the level of respect at which one is regarded by others....RIzE Above Or Sink Below

[IMG]http://leetleech.org/images/83508160282003703104.png[/IMG][/align]